<?xml version="1.0" encoding="UTF-8"?>
<svg id="Layer_1" data-name="Layer 1" xmlns="http://www.w3.org/2000/svg" viewBox="0 0 87.72 98.9">
  <defs>
    <style>
      .cls-1 {
        fill: #2b2e34;
        stroke-width: 0px;
      }
    </style>
  </defs>
  <path class="cls-1" d="M36.02,51c-8.3,0-15-6.7-15-15s6.7-15,15-15,15,6.7,15,15-6.7,15-15,15M36.32,0C14.02,0-.68,16.8.02,37.2c.6,18.1,14.5,33.6,35.2,32.1l-20.1,29.5h26.6l13.2-20.2c10.4-15.8,17.1-28.2,17.1-41.8C71.82,16.6,58.42,0,36.32,0"/>
  <path class="cls-1" d="M74.52,72.5c7.3,0,13.2,5.9,13.2,13.2s-5.9,13.2-13.2,13.2-13.1-5.9-13.1-13.2c0-7.2,5.6-13.2,13.1-13.2"/>
</svg>